<svg width="213" height="213" viewBox="0 0 213 213" fill="none" xmlns="http://www.w3.org/2000/svg">
<path d="M205.649 135.756C195.149 177.256 77.8758 212 41.1488 212C4.4219 212 -4.8278 163.5 2.14889 135.756C12.6489 94 106.422 12 143.149 12C221.649 12 217.982 87.0112 205.649 135.756Z" fill="#FF7D2B"/>
<mask id="path-2-outside-1_143_1157" maskUnits="userSpaceOnUse" x="12" y="46" width="153" height="75" fill="black">
<rect fill="white" x="12" y="46" width="153" height="75"/>
<path d="M28.0469 117H17.1719C16.9219 117 16.7969 116.844 16.7969 116.531L16.9844 50.5781C16.9844 50.3281 17.1094 50.2031 17.3594 50.2031H36.7656C40.2344 50.2031 43.4219 51.0469 46.3281 52.7344C49.2344 54.4219 51.5469 56.6875 53.2656 59.5312C55.0156 62.375 55.8906 65.5938 55.8906 69.1875C55.8906 71.5312 55.5312 73.6562 54.8125 75.5625C54.0938 77.4688 53.25 79.0781 52.2812 80.3906C51.3438 81.7031 50.4844 82.6719 49.7031 83.2969C53.1719 87.1406 54.9062 91.6562 54.9062 96.8438L55 116.531C55 116.844 54.8438 117 54.5312 117H43.6562C43.4062 117 43.2812 116.906 43.2812 116.719V96.8438C43.2812 94.5312 42.4688 92.5312 40.8438 90.8438C39.2188 89.1562 37.2188 88.3125 34.8438 88.3125H28.5156L28.4219 116.531C28.4219 116.844 28.2969 117 28.0469 117ZM36.7656 61.6875H28.5156V76.7812H36.7656C38.7344 76.7812 40.4844 76.0469 42.0156 74.5781C43.5781 73.1094 44.3594 71.3125 44.3594 69.1875C44.3594 67.1562 43.6094 65.4062 42.1094 63.9375C40.6094 62.4375 38.8281 61.6875 36.7656 61.6875ZM74.4531 117H63.5781C63.2656 117 63.1094 116.844 63.1094 116.531L63.2031 50.5781C63.2031 50.3281 63.3281 50.2031 63.5781 50.2031H74.3594C74.6094 50.2031 74.7344 50.3281 74.7344 50.5781L74.8281 116.531C74.8281 116.844 74.7031 117 74.4531 117ZM100.938 116.906L83.7344 117C83.4219 117 83.2656 116.844 83.2656 116.531L83.4531 50.5781C83.4531 50.3281 83.5781 50.2031 83.8281 50.2031L101.781 50.1094C105.344 50.0156 108.562 50.8281 111.438 52.5469C114.344 54.2656 116.656 56.5938 118.375 59.5312C120.125 62.4375 121 65.6562 121 69.1875V96.75C121 100.438 120.109 103.812 118.328 106.875C116.516 109.906 114.109 112.328 111.109 114.141C108.109 115.922 104.719 116.844 100.938 116.906ZM101.781 61.5938L95.0781 61.6875L94.9844 105.188H100.938C103.312 105.188 105.312 104.359 106.938 102.703C108.562 101.047 109.375 99.0625 109.375 96.75V69.0938C109.375 67.0625 108.625 65.2969 107.125 63.7969C105.625 62.2656 103.844 61.5312 101.781 61.5938ZM159.953 117H128.922C128.672 117 128.547 116.844 128.547 116.531L128.641 50.5781C128.641 50.3281 128.766 50.2031 129.016 50.2031H159.859C160.109 50.2031 160.234 50.3594 160.234 50.6719V61.4062C160.234 61.6562 160.109 61.7812 159.859 61.7812H140.172V76.7812H159.859C160.109 76.7812 160.234 76.9062 160.234 77.1562L160.328 88.0312C160.328 88.2812 160.203 88.4062 159.953 88.4062H140.172V105.188H159.953C160.203 105.188 160.328 105.344 160.328 105.656V116.625C160.328 116.875 160.203 117 159.953 117Z"/>
</mask>
<path d="M28.0469 117H17.1719C16.9219 117 16.7969 116.844 16.7969 116.531L16.9844 50.5781C16.9844 50.3281 17.1094 50.2031 17.3594 50.2031H36.7656C40.2344 50.2031 43.4219 51.0469 46.3281 52.7344C49.2344 54.4219 51.5469 56.6875 53.2656 59.5312C55.0156 62.375 55.8906 65.5938 55.8906 69.1875C55.8906 71.5312 55.5312 73.6562 54.8125 75.5625C54.0938 77.4688 53.25 79.0781 52.2812 80.3906C51.3438 81.7031 50.4844 82.6719 49.7031 83.2969C53.1719 87.1406 54.9062 91.6562 54.9062 96.8438L55 116.531C55 116.844 54.8438 117 54.5312 117H43.6562C43.4062 117 43.2812 116.906 43.2812 116.719V96.8438C43.2812 94.5312 42.4688 92.5312 40.8438 90.8438C39.2188 89.1562 37.2188 88.3125 34.8438 88.3125H28.5156L28.4219 116.531C28.4219 116.844 28.2969 117 28.0469 117ZM36.7656 61.6875H28.5156V76.7812H36.7656C38.7344 76.7812 40.4844 76.0469 42.0156 74.5781C43.5781 73.1094 44.3594 71.3125 44.3594 69.1875C44.3594 67.1562 43.6094 65.4062 42.1094 63.9375C40.6094 62.4375 38.8281 61.6875 36.7656 61.6875ZM74.4531 117H63.5781C63.2656 117 63.1094 116.844 63.1094 116.531L63.2031 50.5781C63.2031 50.3281 63.3281 50.2031 63.5781 50.2031H74.3594C74.6094 50.2031 74.7344 50.3281 74.7344 50.5781L74.8281 116.531C74.8281 116.844 74.7031 117 74.4531 117ZM100.938 116.906L83.7344 117C83.4219 117 83.2656 116.844 83.2656 116.531L83.4531 50.5781C83.4531 50.3281 83.5781 50.2031 83.8281 50.2031L101.781 50.1094C105.344 50.0156 108.562 50.8281 111.438 52.5469C114.344 54.2656 116.656 56.5938 118.375 59.5312C120.125 62.4375 121 65.6562 121 69.1875V96.75C121 100.438 120.109 103.812 118.328 106.875C116.516 109.906 114.109 112.328 111.109 114.141C108.109 115.922 104.719 116.844 100.938 116.906ZM101.781 61.5938L95.0781 61.6875L94.9844 105.188H100.938C103.312 105.188 105.312 104.359 106.938 102.703C108.562 101.047 109.375 99.0625 109.375 96.75V69.0938C109.375 67.0625 108.625 65.2969 107.125 63.7969C105.625 62.2656 103.844 61.5312 101.781 61.5938ZM159.953 117H128.922C128.672 117 128.547 116.844 128.547 116.531L128.641 50.5781C128.641 50.3281 128.766 50.2031 129.016 50.2031H159.859C160.109 50.2031 160.234 50.3594 160.234 50.6719V61.4062C160.234 61.6562 160.109 61.7812 159.859 61.7812H140.172V76.7812H159.859C160.109 76.7812 160.234 76.9062 160.234 77.1562L160.328 88.0312C160.328 88.2812 160.203 88.4062 159.953 88.4062H140.172V105.188H159.953C160.203 105.188 160.328 105.344 160.328 105.656V116.625C160.328 116.875 160.203 117 159.953 117Z" fill="white"/>
<path d="M16.7969 116.531L12.7969 116.52V116.531H16.7969ZM16.9844 50.5781L20.9844 50.5895V50.5781H16.9844ZM53.2656 59.5312L49.8423 61.6003L49.8506 61.614L49.859 61.6276L53.2656 59.5312ZM52.2812 80.3906L49.063 78.0152L49.0444 78.0403L49.0263 78.0657L52.2812 80.3906ZM49.7031 83.2969L47.2043 80.1734L43.8895 82.8253L46.7336 85.9767L49.7031 83.2969ZM54.9062 96.8438H50.9062V96.8533L50.9063 96.8628L54.9062 96.8438ZM55 116.531H59V116.522L59 116.512L55 116.531ZM28.5156 88.3125V84.3125H24.5289L24.5156 88.2992L28.5156 88.3125ZM28.4219 116.531L24.4219 116.518V116.531H28.4219ZM28.5156 61.6875V57.6875H24.5156V61.6875H28.5156ZM28.5156 76.7812H24.5156V80.7812H28.5156V76.7812ZM42.0156 74.5781L39.276 71.6636L39.2613 71.6774L39.2467 71.6914L42.0156 74.5781ZM42.1094 63.9375L39.2809 66.7659L39.2958 66.7808L39.3109 66.7955L42.1094 63.9375ZM28.0469 113H17.1719V121H28.0469V113ZM17.1719 113C17.9297 113 19.1317 113.281 20.0141 114.384C20.7601 115.317 20.7969 116.26 20.7969 116.531H12.7969C12.7969 117.115 12.8961 118.293 13.7671 119.382C14.7745 120.641 16.1641 121 17.1719 121V113ZM20.7969 116.543L20.9844 50.5895L12.9844 50.5668L12.7969 116.52L20.7969 116.543ZM20.9844 50.5781C20.9844 51.0697 20.8588 52.1731 19.9066 53.1253C18.9543 54.0775 17.851 54.2031 17.3594 54.2031V46.2031C16.6178 46.2031 15.3269 46.3912 14.2497 47.4684C13.1725 48.5457 12.9844 49.8365 12.9844 50.5781H20.9844ZM17.3594 54.2031H36.7656V46.2031H17.3594V54.2031ZM36.7656 54.2031C39.5526 54.2031 42.0436 54.872 44.3196 56.1935L48.3367 49.2752C44.8001 47.2217 40.9161 46.2031 36.7656 46.2031V54.2031ZM44.3196 56.1935C46.6519 57.5478 48.4751 59.3381 49.8423 61.6003L56.6889 57.4622C54.6187 54.0369 51.8168 51.296 48.3367 49.2752L44.3196 56.1935ZM49.859 61.6276C51.1914 63.7928 51.8906 66.2753 51.8906 69.1875H59.8906C59.8906 64.9122 58.8399 60.9572 56.6723 57.4349L49.859 61.6276ZM51.8906 69.1875C51.8906 71.1207 51.5949 72.7585 51.0697 74.1513L58.5553 76.9737C59.4676 74.554 59.8906 71.9418 59.8906 69.1875H51.8906ZM51.0697 74.1513C50.4499 75.795 49.7671 77.0612 49.063 78.0152L55.4995 82.766C56.7329 81.095 57.7376 79.1425 58.5553 76.9737L51.0697 74.1513ZM49.0263 78.0657C48.1892 79.2376 47.5773 79.875 47.2043 80.1734L52.2019 86.4204C53.3914 85.4687 54.4983 84.1687 55.5362 82.7156L49.0263 78.0657ZM46.7336 85.9767C49.5376 89.0839 50.9062 92.6442 50.9062 96.8438H58.9062C58.9062 90.6683 56.8061 85.1973 52.6727 80.617L46.7336 85.9767ZM50.9063 96.8628L51 116.55L59 116.512L58.9062 96.8247L50.9063 96.8628ZM51 116.531C51 116.071 51.1178 114.991 52.0544 114.054C52.991 113.118 54.0709 113 54.5312 113V121C55.3041 121 56.6184 120.804 57.7112 119.711C58.8041 118.618 59 117.304 59 116.531H51ZM54.5312 113H43.6562V121H54.5312V113ZM43.6562 113C43.9159 113 44.8399 113.028 45.775 113.73C46.9265 114.593 47.2812 115.837 47.2812 116.719H39.2812C39.2812 117.788 39.6985 119.172 40.975 120.13C42.0351 120.925 43.1466 121 43.6562 121V113ZM47.2812 116.719V96.8438H39.2812V116.719H47.2812ZM47.2812 96.8438C47.2812 93.4815 46.0573 90.4912 43.725 88.0692L37.9625 93.6183C38.8802 94.5713 39.2812 95.581 39.2812 96.8438H47.2812ZM43.725 88.0692C41.3344 85.5866 38.2889 84.3125 34.8438 84.3125V92.3125C36.1486 92.3125 37.1031 92.7259 37.9625 93.6183L43.725 88.0692ZM34.8438 84.3125H28.5156V92.3125H34.8438V84.3125ZM24.5156 88.2992L24.4219 116.518L32.4219 116.545L32.5156 88.3258L24.5156 88.2992ZM24.4219 116.531C24.4219 116.26 24.4586 115.317 25.2046 114.384C26.087 113.281 27.2891 113 28.0469 113V121C29.0547 121 30.4442 120.641 31.4516 119.382C32.3226 118.293 32.4219 117.115 32.4219 116.531H24.4219ZM36.7656 57.6875H28.5156V65.6875H36.7656V57.6875ZM24.5156 61.6875V76.7812H32.5156V61.6875H24.5156ZM28.5156 80.7812H36.7656V72.7812H28.5156V80.7812ZM36.7656 80.7812C39.8512 80.7812 42.572 79.587 44.7845 77.4649L39.2467 71.6914C38.3967 72.5067 37.6175 72.7812 36.7656 72.7812V80.7812ZM44.7553 77.4926C47.1137 75.2757 48.3594 72.4277 48.3594 69.1875H40.3594C40.3594 70.1973 40.0426 70.943 39.276 71.6636L44.7553 77.4926ZM48.3594 69.1875C48.3594 66.041 47.1474 63.2723 44.9079 61.0795L39.3109 66.7955C40.0713 67.5402 40.3594 68.2715 40.3594 69.1875H48.3594ZM44.9378 61.1091C42.7116 58.8829 39.9224 57.6875 36.7656 57.6875V65.6875C37.7339 65.6875 38.5072 65.9921 39.2809 66.7659L44.9378 61.1091ZM63.1094 116.531L59.1094 116.526V116.531H63.1094ZM63.2031 50.5781L67.2031 50.5838V50.5781H63.2031ZM74.7344 50.5781L70.7344 50.5781L70.7344 50.5838L74.7344 50.5781ZM74.8281 116.531L78.8281 116.531L78.8281 116.526L74.8281 116.531ZM74.4531 113H63.5781V121H74.4531V113ZM63.5781 113C64.0385 113 65.1184 113.118 66.055 114.054C66.9916 114.991 67.1094 116.071 67.1094 116.531H59.1094C59.1094 117.304 59.3053 118.618 60.3981 119.711C61.491 120.804 62.8053 121 63.5781 121V113ZM67.1094 116.537L67.2031 50.5838L59.2031 50.5724L59.1094 116.526L67.1094 116.537ZM67.2031 50.5781C67.2031 51.0697 67.0775 52.1731 66.1253 53.1253C65.1731 54.0775 64.0697 54.2031 63.5781 54.2031V46.2031C62.8365 46.2031 61.5457 46.3912 60.4684 47.4684C59.3912 48.5457 59.2031 49.8365 59.2031 50.5781H67.2031ZM63.5781 54.2031H74.3594V46.2031H63.5781V54.2031ZM74.3594 54.2031C73.8678 54.2031 72.7644 54.0775 71.8122 53.1253C70.86 52.1731 70.7344 51.0697 70.7344 50.5781H78.7344C78.7344 49.8365 78.5463 48.5457 77.4691 47.4684C76.3918 46.3912 75.101 46.2031 74.3594 46.2031V54.2031ZM70.7344 50.5838L70.8281 116.537L78.8281 116.526L78.7344 50.5724L70.7344 50.5838ZM70.8281 116.531C70.8281 116.26 70.8649 115.317 71.6109 114.384C72.4933 113.281 73.6953 113 74.4531 113V121C75.4609 121 76.8505 120.641 77.8579 119.382C78.7289 118.293 78.8281 117.115 78.8281 116.531H70.8281ZM100.938 116.906L100.959 120.906L100.981 120.906L101.004 120.906L100.938 116.906ZM83.7344 117V121H83.7453L83.7562 121L83.7344 117ZM83.2656 116.531L79.2656 116.52V116.531H83.2656ZM83.4531 50.5781L87.4531 50.5895V50.5781H83.4531ZM83.8281 50.2031V54.2031H83.8386L83.849 54.2031L83.8281 50.2031ZM101.781 50.1094L101.802 54.1093L101.844 54.1091L101.886 54.108L101.781 50.1094ZM111.438 52.5469L109.385 55.9801L109.393 55.985L109.401 55.9898L111.438 52.5469ZM118.375 59.5312L114.923 61.5513L114.935 61.5731L114.948 61.5946L118.375 59.5312ZM118.328 106.875L121.761 108.928L121.774 108.907L121.786 108.886L118.328 106.875ZM111.109 114.141L113.152 117.58L113.165 117.572L113.178 117.564L111.109 114.141ZM101.781 61.5938L101.837 65.5934L101.87 65.5929L101.902 65.5919L101.781 61.5938ZM95.0781 61.6875L95.0222 57.6879L91.0866 57.7429L91.0781 61.6789L95.0781 61.6875ZM94.9844 105.188L90.9844 105.179L90.9757 109.188H94.9844V105.188ZM107.125 63.7969L104.268 66.596L104.282 66.6107L104.297 66.6253L107.125 63.7969ZM100.916 112.906L83.7126 113L83.7562 121L100.959 120.906L100.916 112.906ZM83.7344 113C84.1947 113 85.2746 113.118 86.2112 114.054C87.1478 114.991 87.2656 116.071 87.2656 116.531H79.2656C79.2656 117.304 79.4615 118.618 80.5544 119.711C81.6472 120.804 82.9615 121 83.7344 121V113ZM87.2656 116.543L87.4531 50.5895L79.4531 50.5668L79.2656 116.52L87.2656 116.543ZM87.4531 50.5781C87.4531 51.0697 87.3275 52.1731 86.3753 53.1253C85.4231 54.0775 84.3197 54.2031 83.8281 54.2031V46.2031C83.0865 46.2031 81.7957 46.3912 80.7184 47.4684C79.6412 48.5457 79.4531 49.8365 79.4531 50.5781H87.4531ZM83.849 54.2031L101.802 54.1093L101.76 46.1094L83.8072 46.2032L83.849 54.2031ZM101.886 54.108C104.741 54.0329 107.203 54.6758 109.385 55.9801L113.49 49.1136C109.922 46.9804 105.946 45.9984 101.676 46.1108L101.886 54.108ZM109.401 55.9898C111.717 57.3595 113.544 59.1959 114.923 61.5513L121.827 57.5112C119.768 53.9916 116.97 51.1717 113.474 49.1039L109.401 55.9898ZM114.948 61.5946C116.307 63.8518 117 66.3522 117 69.1875H125C125 64.9603 123.943 61.0232 121.802 57.4679L114.948 61.5946ZM117 69.1875V96.75H125V69.1875H117ZM117 96.75C117 99.7611 116.282 102.438 114.87 104.864L121.786 108.886C123.937 105.187 125 101.114 125 96.75H117ZM114.895 104.822C113.416 107.296 111.476 109.246 109.041 110.717L113.178 117.564C116.742 115.411 119.616 112.516 121.761 108.928L114.895 104.822ZM109.067 110.701C106.716 112.097 104.017 112.855 100.871 112.907L101.004 120.906C105.421 120.833 109.503 119.746 113.152 117.58L109.067 110.701ZM101.725 57.5941L95.0222 57.6879L95.1341 65.6871L101.837 65.5934L101.725 57.5941ZM91.0781 61.6789L90.9844 105.179L98.9844 105.196L99.0781 61.6961L91.0781 61.6789ZM94.9844 109.188H100.938V101.188H94.9844V109.188ZM100.938 109.188C104.358 109.188 107.396 107.947 109.793 105.504L104.082 99.9018C103.229 100.771 102.267 101.188 100.938 101.188V109.188ZM109.793 105.504C112.149 103.103 113.375 100.114 113.375 96.75H105.375C105.375 98.0109 104.976 98.9905 104.082 99.9018L109.793 105.504ZM113.375 96.75V69.0938H105.375V96.75H113.375ZM113.375 69.0938C113.375 65.9503 112.167 63.1815 109.953 60.9684L104.297 66.6253C105.083 67.4122 105.375 68.1747 105.375 69.0938H113.375ZM109.982 60.9978C107.735 58.7034 104.887 57.4978 101.66 57.5956L101.902 65.5919C102.8 65.5647 103.515 65.8278 104.268 66.596L109.982 60.9978ZM128.547 116.531L124.547 116.526V116.531H128.547ZM128.641 50.5781L132.641 50.5838V50.5781H128.641ZM140.172 61.7812V57.7812H136.172V61.7812H140.172ZM140.172 76.7812H136.172V80.7812H140.172V76.7812ZM160.234 77.1562H156.234V77.1735L156.235 77.1907L160.234 77.1562ZM160.328 88.0312H164.328V88.014L164.328 87.9968L160.328 88.0312ZM140.172 88.4062V84.4062H136.172V88.4062H140.172ZM140.172 105.188H136.172V109.188H140.172V105.188ZM159.953 113H128.922V121H159.953V113ZM128.922 113C129.68 113 130.882 113.281 131.764 114.384C132.51 115.317 132.547 116.26 132.547 116.531H124.547C124.547 117.115 124.646 118.293 125.517 119.382C126.525 120.641 127.914 121 128.922 121V113ZM132.547 116.537L132.641 50.5838L124.641 50.5724L124.547 116.526L132.547 116.537ZM132.641 50.5781C132.641 51.0697 132.515 52.1731 131.563 53.1253C130.611 54.0775 129.507 54.2031 129.016 54.2031V46.2031C128.274 46.2031 126.983 46.3912 125.906 47.4684C124.829 48.5457 124.641 49.8365 124.641 50.5781H132.641ZM129.016 54.2031H159.859V46.2031H129.016V54.2031ZM159.859 54.2031C159.102 54.2031 157.9 53.9221 157.017 52.8191C156.271 51.8865 156.234 50.943 156.234 50.6719H164.234C164.234 50.0883 164.135 48.9103 163.264 47.8215C162.257 46.5623 160.867 46.2031 159.859 46.2031V54.2031ZM156.234 50.6719V61.4062H164.234V50.6719H156.234ZM156.234 61.4062C156.234 60.9147 156.36 59.8113 157.312 58.8591C158.264 57.9069 159.368 57.7812 159.859 57.7812V65.7812C160.601 65.7812 161.892 65.5931 162.969 64.5159C164.046 63.4387 164.234 62.1478 164.234 61.4062H156.234ZM159.859 57.7812H140.172V65.7812H159.859V57.7812ZM136.172 61.7812V76.7812H144.172V61.7812H136.172ZM140.172 80.7812H159.859V72.7812H140.172V80.7812ZM159.859 80.7812C159.368 80.7812 158.264 80.6556 157.312 79.7034C156.36 78.7512 156.234 77.6478 156.234 77.1562H164.234C164.234 76.4147 164.046 75.1238 162.969 74.0466C161.892 72.9694 160.601 72.7812 159.859 72.7812V80.7812ZM156.235 77.1907L156.328 88.0657L164.328 87.9968L164.234 77.1218L156.235 77.1907ZM156.328 88.0312C156.328 87.5397 156.454 86.4363 157.406 85.4841C158.358 84.5319 159.462 84.4062 159.953 84.4062V92.4062C160.695 92.4062 161.986 92.2181 163.063 91.1409C164.14 90.0637 164.328 88.7728 164.328 88.0312H156.328ZM159.953 84.4062H140.172V92.4062H159.953V84.4062ZM136.172 88.4062V105.188H144.172V88.4062H136.172ZM140.172 109.188H159.953V101.188H140.172V109.188ZM159.953 109.188C159.195 109.188 157.993 108.906 157.111 107.803C156.365 106.871 156.328 105.927 156.328 105.656H164.328C164.328 105.073 164.229 103.895 163.358 102.806C162.35 101.547 160.961 101.188 159.953 101.188V109.188ZM156.328 105.656V116.625H164.328V105.656H156.328ZM156.328 116.625C156.328 116.133 156.454 115.03 157.406 114.078C158.358 113.126 159.462 113 159.953 113V121C160.695 121 161.986 120.812 163.063 119.735C164.14 118.657 164.328 117.367 164.328 116.625H156.328Z" fill="#FF7D2B" mask="url(#path-2-outside-1_143_1157)"/>
<mask id="path-4-outside-2_143_1157" maskUnits="userSpaceOnUse" x="44" y="124" width="153" height="75" fill="black">
<rect fill="white" x="44" y="124" width="153" height="75"/>
<path d="M60.0469 195H49.1719C48.9219 195 48.7969 194.844 48.7969 194.531L48.9844 128.578C48.9844 128.328 49.1094 128.203 49.3594 128.203H68.7656C72.2344 128.203 75.4219 129.047 78.3281 130.734C81.2344 132.422 83.5469 134.688 85.2656 137.531C87.0156 140.375 87.8906 143.594 87.8906 147.188C87.8906 149.531 87.5312 151.656 86.8125 153.562C86.0938 155.469 85.25 157.078 84.2812 158.391C83.3438 159.703 82.4844 160.672 81.7031 161.297C85.1719 165.141 86.9062 169.656 86.9062 174.844L87 194.531C87 194.844 86.8438 195 86.5312 195H75.6562C75.4062 195 75.2812 194.906 75.2812 194.719V174.844C75.2812 172.531 74.4688 170.531 72.8438 168.844C71.2188 167.156 69.2188 166.312 66.8438 166.312H60.5156L60.4219 194.531C60.4219 194.844 60.2969 195 60.0469 195ZM68.7656 139.688H60.5156V154.781H68.7656C70.7344 154.781 72.4844 154.047 74.0156 152.578C75.5781 151.109 76.3594 149.312 76.3594 147.188C76.3594 145.156 75.6094 143.406 74.1094 141.938C72.6094 140.438 70.8281 139.688 68.7656 139.688ZM106.453 195H95.5781C95.2656 195 95.1094 194.844 95.1094 194.531L95.2031 128.578C95.2031 128.328 95.3281 128.203 95.5781 128.203H106.359C106.609 128.203 106.734 128.328 106.734 128.578L106.828 194.531C106.828 194.844 106.703 195 106.453 195ZM132.938 194.906L115.734 195C115.422 195 115.266 194.844 115.266 194.531L115.453 128.578C115.453 128.328 115.578 128.203 115.828 128.203L133.781 128.109C137.344 128.016 140.562 128.828 143.438 130.547C146.344 132.266 148.656 134.594 150.375 137.531C152.125 140.438 153 143.656 153 147.188V174.75C153 178.438 152.109 181.812 150.328 184.875C148.516 187.906 146.109 190.328 143.109 192.141C140.109 193.922 136.719 194.844 132.938 194.906ZM133.781 139.594L127.078 139.688L126.984 183.188H132.938C135.312 183.188 137.312 182.359 138.938 180.703C140.562 179.047 141.375 177.062 141.375 174.75V147.094C141.375 145.062 140.625 143.297 139.125 141.797C137.625 140.266 135.844 139.531 133.781 139.594ZM191.953 195H160.922C160.672 195 160.547 194.844 160.547 194.531L160.641 128.578C160.641 128.328 160.766 128.203 161.016 128.203H191.859C192.109 128.203 192.234 128.359 192.234 128.672V139.406C192.234 139.656 192.109 139.781 191.859 139.781H172.172V154.781H191.859C192.109 154.781 192.234 154.906 192.234 155.156L192.328 166.031C192.328 166.281 192.203 166.406 191.953 166.406H172.172V183.188H191.953C192.203 183.188 192.328 183.344 192.328 183.656V194.625C192.328 194.875 192.203 195 191.953 195Z"/>
</mask>
<path d="M60.0469 195H49.1719C48.9219 195 48.7969 194.844 48.7969 194.531L48.9844 128.578C48.9844 128.328 49.1094 128.203 49.3594 128.203H68.7656C72.2344 128.203 75.4219 129.047 78.3281 130.734C81.2344 132.422 83.5469 134.688 85.2656 137.531C87.0156 140.375 87.8906 143.594 87.8906 147.188C87.8906 149.531 87.5312 151.656 86.8125 153.562C86.0938 155.469 85.25 157.078 84.2812 158.391C83.3438 159.703 82.4844 160.672 81.7031 161.297C85.1719 165.141 86.9062 169.656 86.9062 174.844L87 194.531C87 194.844 86.8438 195 86.5312 195H75.6562C75.4062 195 75.2812 194.906 75.2812 194.719V174.844C75.2812 172.531 74.4688 170.531 72.8438 168.844C71.2188 167.156 69.2188 166.312 66.8438 166.312H60.5156L60.4219 194.531C60.4219 194.844 60.2969 195 60.0469 195ZM68.7656 139.688H60.5156V154.781H68.7656C70.7344 154.781 72.4844 154.047 74.0156 152.578C75.5781 151.109 76.3594 149.312 76.3594 147.188C76.3594 145.156 75.6094 143.406 74.1094 141.938C72.6094 140.438 70.8281 139.688 68.7656 139.688ZM106.453 195H95.5781C95.2656 195 95.1094 194.844 95.1094 194.531L95.2031 128.578C95.2031 128.328 95.3281 128.203 95.5781 128.203H106.359C106.609 128.203 106.734 128.328 106.734 128.578L106.828 194.531C106.828 194.844 106.703 195 106.453 195ZM132.938 194.906L115.734 195C115.422 195 115.266 194.844 115.266 194.531L115.453 128.578C115.453 128.328 115.578 128.203 115.828 128.203L133.781 128.109C137.344 128.016 140.562 128.828 143.438 130.547C146.344 132.266 148.656 134.594 150.375 137.531C152.125 140.438 153 143.656 153 147.188V174.75C153 178.438 152.109 181.812 150.328 184.875C148.516 187.906 146.109 190.328 143.109 192.141C140.109 193.922 136.719 194.844 132.938 194.906ZM133.781 139.594L127.078 139.688L126.984 183.188H132.938C135.312 183.188 137.312 182.359 138.938 180.703C140.562 179.047 141.375 177.062 141.375 174.75V147.094C141.375 145.062 140.625 143.297 139.125 141.797C137.625 140.266 135.844 139.531 133.781 139.594ZM191.953 195H160.922C160.672 195 160.547 194.844 160.547 194.531L160.641 128.578C160.641 128.328 160.766 128.203 161.016 128.203H191.859C192.109 128.203 192.234 128.359 192.234 128.672V139.406C192.234 139.656 192.109 139.781 191.859 139.781H172.172V154.781H191.859C192.109 154.781 192.234 154.906 192.234 155.156L192.328 166.031C192.328 166.281 192.203 166.406 191.953 166.406H172.172V183.188H191.953C192.203 183.188 192.328 183.344 192.328 183.656V194.625C192.328 194.875 192.203 195 191.953 195Z" fill="white"/>
<path d="M48.7969 194.531L44.7969 194.52V194.531H48.7969ZM48.9844 128.578L52.9844 128.589V128.578H48.9844ZM85.2656 137.531L81.8423 139.6L81.8506 139.614L81.859 139.628L85.2656 137.531ZM84.2812 158.391L81.063 156.015L81.0444 156.04L81.0263 156.066L84.2812 158.391ZM81.7031 161.297L79.2043 158.173L75.8895 160.825L78.7336 163.977L81.7031 161.297ZM86.9062 174.844H82.9062V174.853L82.9063 174.863L86.9062 174.844ZM87 194.531H91V194.522L91 194.512L87 194.531ZM60.5156 166.312V162.312H56.5289L56.5156 166.299L60.5156 166.312ZM60.4219 194.531L56.4219 194.518V194.531H60.4219ZM60.5156 139.688V135.688H56.5156V139.688H60.5156ZM60.5156 154.781H56.5156V158.781H60.5156V154.781ZM74.0156 152.578L71.276 149.664L71.2613 149.677L71.2467 149.691L74.0156 152.578ZM74.1094 141.938L71.2809 144.766L71.2958 144.781L71.3109 144.796L74.1094 141.938ZM60.0469 191H49.1719V199H60.0469V191ZM49.1719 191C49.9297 191 51.1317 191.281 52.0141 192.384C52.7601 193.317 52.7969 194.26 52.7969 194.531H44.7969C44.7969 195.115 44.8961 196.293 45.7671 197.382C46.7745 198.641 48.1641 199 49.1719 199V191ZM52.7969 194.543L52.9844 128.589L44.9844 128.567L44.7969 194.52L52.7969 194.543ZM52.9844 128.578C52.9844 129.07 52.8588 130.173 51.9066 131.125C50.9543 132.078 49.851 132.203 49.3594 132.203V124.203C48.6178 124.203 47.3269 124.391 46.2497 125.468C45.1725 126.546 44.9844 127.837 44.9844 128.578H52.9844ZM49.3594 132.203H68.7656V124.203H49.3594V132.203ZM68.7656 132.203C71.5526 132.203 74.0436 132.872 76.3196 134.194L80.3367 127.275C76.8001 125.222 72.9161 124.203 68.7656 124.203V132.203ZM76.3196 134.194C78.6519 135.548 80.4751 137.338 81.8423 139.6L88.6889 135.462C86.6187 132.037 83.8168 129.296 80.3367 127.275L76.3196 134.194ZM81.859 139.628C83.1914 141.793 83.8906 144.275 83.8906 147.188H91.8906C91.8906 142.912 90.8399 138.957 88.6723 135.435L81.859 139.628ZM83.8906 147.188C83.8906 149.121 83.5949 150.759 83.0697 152.151L90.5553 154.974C91.4676 152.554 91.8906 149.942 91.8906 147.188H83.8906ZM83.0697 152.151C82.4499 153.795 81.7671 155.061 81.063 156.015L87.4995 160.766C88.7329 159.095 89.7376 157.142 90.5553 154.974L83.0697 152.151ZM81.0263 156.066C80.1892 157.238 79.5773 157.875 79.2043 158.173L84.2019 164.42C85.3914 163.469 86.4983 162.169 87.5362 160.716L81.0263 156.066ZM78.7336 163.977C81.5376 167.084 82.9062 170.644 82.9062 174.844H90.9062C90.9062 168.668 88.8061 163.197 84.6727 158.617L78.7336 163.977ZM82.9063 174.863L83 194.55L91 194.512L90.9062 174.825L82.9063 174.863ZM83 194.531C83 194.071 83.1178 192.991 84.0544 192.054C84.991 191.118 86.0709 191 86.5312 191V199C87.3041 199 88.6184 198.804 89.7112 197.711C90.8041 196.618 91 195.304 91 194.531H83ZM86.5312 191H75.6562V199H86.5312V191ZM75.6562 191C75.9159 191 76.8399 191.028 77.775 191.73C78.9265 192.593 79.2812 193.837 79.2812 194.719H71.2812C71.2812 195.788 71.6985 197.172 72.975 198.13C74.0351 198.925 75.1466 199 75.6562 199V191ZM79.2812 194.719V174.844H71.2812V194.719H79.2812ZM79.2812 174.844C79.2812 171.482 78.0573 168.491 75.725 166.069L69.9625 171.618C70.8802 172.571 71.2812 173.581 71.2812 174.844H79.2812ZM75.725 166.069C73.3344 163.587 70.2889 162.312 66.8438 162.312V170.312C68.1486 170.312 69.1031 170.726 69.9625 171.618L75.725 166.069ZM66.8438 162.312H60.5156V170.312H66.8438V162.312ZM56.5156 166.299L56.4219 194.518L64.4219 194.545L64.5156 166.326L56.5156 166.299ZM56.4219 194.531C56.4219 194.26 56.4586 193.317 57.2046 192.384C58.087 191.281 59.2891 191 60.0469 191V199C61.0547 199 62.4442 198.641 63.4516 197.382C64.3226 196.293 64.4219 195.115 64.4219 194.531H56.4219ZM68.7656 135.688H60.5156V143.688H68.7656V135.688ZM56.5156 139.688V154.781H64.5156V139.688H56.5156ZM60.5156 158.781H68.7656V150.781H60.5156V158.781ZM68.7656 158.781C71.8512 158.781 74.572 157.587 76.7845 155.465L71.2467 149.691C70.3967 150.507 69.6175 150.781 68.7656 150.781V158.781ZM76.7553 155.493C79.1137 153.276 80.3594 150.428 80.3594 147.188H72.3594C72.3594 148.197 72.0426 148.943 71.276 149.664L76.7553 155.493ZM80.3594 147.188C80.3594 144.041 79.1474 141.272 76.9079 139.079L71.3109 144.796C72.0713 145.54 72.3594 146.271 72.3594 147.188H80.3594ZM76.9378 139.109C74.7116 136.883 71.9224 135.688 68.7656 135.688V143.688C69.7339 143.688 70.5072 143.992 71.2809 144.766L76.9378 139.109ZM95.1094 194.531L91.1094 194.526V194.531H95.1094ZM95.2031 128.578L99.2031 128.584V128.578H95.2031ZM106.734 128.578L102.734 128.578L102.734 128.584L106.734 128.578ZM106.828 194.531L110.828 194.531L110.828 194.526L106.828 194.531ZM106.453 191H95.5781V199H106.453V191ZM95.5781 191C96.0385 191 97.1184 191.118 98.055 192.054C98.9916 192.991 99.1094 194.071 99.1094 194.531H91.1094C91.1094 195.304 91.3053 196.618 92.3981 197.711C93.491 198.804 94.8053 199 95.5781 199V191ZM99.1094 194.537L99.2031 128.584L91.2031 128.572L91.1094 194.526L99.1094 194.537ZM99.2031 128.578C99.2031 129.07 99.0775 130.173 98.1253 131.125C97.1731 132.078 96.0697 132.203 95.5781 132.203V124.203C94.8365 124.203 93.5457 124.391 92.4684 125.468C91.3912 126.546 91.2031 127.837 91.2031 128.578H99.2031ZM95.5781 132.203H106.359V124.203H95.5781V132.203ZM106.359 132.203C105.868 132.203 104.764 132.078 103.812 131.125C102.86 130.173 102.734 129.07 102.734 128.578H110.734C110.734 127.837 110.546 126.546 109.469 125.468C108.392 124.391 107.101 124.203 106.359 124.203V132.203ZM102.734 128.584L102.828 194.537L110.828 194.526L110.734 128.572L102.734 128.584ZM102.828 194.531C102.828 194.26 102.865 193.317 103.611 192.384C104.493 191.281 105.695 191 106.453 191V199C107.461 199 108.85 198.641 109.858 197.382C110.729 196.293 110.828 195.115 110.828 194.531H102.828ZM132.938 194.906L132.959 198.906L132.981 198.906L133.004 198.906L132.938 194.906ZM115.734 195V199H115.745L115.756 199L115.734 195ZM115.266 194.531L111.266 194.52V194.531H115.266ZM115.453 128.578L119.453 128.589V128.578H115.453ZM115.828 128.203V132.203H115.839L115.849 132.203L115.828 128.203ZM133.781 128.109L133.802 132.109L133.844 132.109L133.886 132.108L133.781 128.109ZM143.438 130.547L141.385 133.98L141.393 133.985L141.401 133.99L143.438 130.547ZM150.375 137.531L146.923 139.551L146.935 139.573L146.948 139.595L150.375 137.531ZM150.328 184.875L153.761 186.928L153.774 186.907L153.786 186.886L150.328 184.875ZM143.109 192.141L145.152 195.58L145.165 195.572L145.178 195.564L143.109 192.141ZM133.781 139.594L133.837 143.593L133.87 143.593L133.902 143.592L133.781 139.594ZM127.078 139.688L127.022 135.688L123.087 135.743L123.078 139.679L127.078 139.688ZM126.984 183.188L122.984 183.179L122.976 187.188H126.984V183.188ZM139.125 141.797L136.268 144.596L136.282 144.611L136.297 144.625L139.125 141.797ZM132.916 190.906L115.713 191L115.756 199L132.959 198.906L132.916 190.906ZM115.734 191C116.195 191 117.275 191.118 118.211 192.054C119.148 192.991 119.266 194.071 119.266 194.531H111.266C111.266 195.304 111.462 196.618 112.554 197.711C113.647 198.804 114.962 199 115.734 199V191ZM119.266 194.543L119.453 128.589L111.453 128.567L111.266 194.52L119.266 194.543ZM119.453 128.578C119.453 129.07 119.328 130.173 118.375 131.125C117.423 132.078 116.32 132.203 115.828 132.203V124.203C115.087 124.203 113.796 124.391 112.718 125.468C111.641 126.546 111.453 127.837 111.453 128.578H119.453ZM115.849 132.203L133.802 132.109L133.76 124.109L115.807 124.203L115.849 132.203ZM133.886 132.108C136.741 132.033 139.203 132.676 141.385 133.98L145.49 127.114C141.922 124.98 137.946 123.998 133.676 124.111L133.886 132.108ZM141.401 133.99C143.717 135.36 145.544 137.196 146.923 139.551L153.827 135.511C151.768 131.992 148.97 129.172 145.474 127.104L141.401 133.99ZM146.948 139.595C148.307 141.852 149 144.352 149 147.188H157C157 142.96 155.943 139.023 153.802 135.468L146.948 139.595ZM149 147.188V174.75H157V147.188H149ZM149 174.75C149 177.761 148.282 180.438 146.87 182.864L153.786 186.886C155.937 183.187 157 179.114 157 174.75H149ZM146.895 182.822C145.416 185.296 143.476 187.246 141.041 188.717L145.178 195.564C148.742 193.411 151.616 190.516 153.761 186.928L146.895 182.822ZM141.067 188.701C138.716 190.097 136.017 190.855 132.871 190.907L133.004 198.906C137.421 198.833 141.503 197.746 145.152 195.58L141.067 188.701ZM133.725 135.594L127.022 135.688L127.134 143.687L133.837 143.593L133.725 135.594ZM123.078 139.679L122.984 183.179L130.984 183.196L131.078 139.696L123.078 139.679ZM126.984 187.188H132.938V179.188H126.984V187.188ZM132.938 187.188C136.358 187.188 139.396 185.947 141.793 183.504L136.082 177.902C135.229 178.771 134.267 179.188 132.938 179.188V187.188ZM141.793 183.504C144.149 181.103 145.375 178.114 145.375 174.75H137.375C137.375 176.011 136.976 176.991 136.082 177.902L141.793 183.504ZM145.375 174.75V147.094H137.375V174.75H145.375ZM145.375 147.094C145.375 143.95 144.167 141.182 141.953 138.968L136.297 144.625C137.083 145.412 137.375 146.175 137.375 147.094H145.375ZM141.982 138.998C139.735 136.703 136.887 135.498 133.66 135.596L133.902 143.592C134.8 143.565 135.515 143.828 136.268 144.596L141.982 138.998ZM160.547 194.531L156.547 194.526V194.531H160.547ZM160.641 128.578L164.641 128.584V128.578H160.641ZM172.172 139.781V135.781H168.172V139.781H172.172ZM172.172 154.781H168.172V158.781H172.172V154.781ZM192.234 155.156H188.234V155.173L188.235 155.191L192.234 155.156ZM192.328 166.031H196.328V166.014L196.328 165.997L192.328 166.031ZM172.172 166.406V162.406H168.172V166.406H172.172ZM172.172 183.188H168.172V187.188H172.172V183.188ZM191.953 191H160.922V199H191.953V191ZM160.922 191C161.68 191 162.882 191.281 163.764 192.384C164.51 193.317 164.547 194.26 164.547 194.531H156.547C156.547 195.115 156.646 196.293 157.517 197.382C158.525 198.641 159.914 199 160.922 199V191ZM164.547 194.537L164.641 128.584L156.641 128.572L156.547 194.526L164.547 194.537ZM164.641 128.578C164.641 129.07 164.515 130.173 163.563 131.125C162.611 132.078 161.507 132.203 161.016 132.203V124.203C160.274 124.203 158.983 124.391 157.906 125.468C156.829 126.546 156.641 127.837 156.641 128.578H164.641ZM161.016 132.203H191.859V124.203H161.016V132.203ZM191.859 132.203C191.102 132.203 189.9 131.922 189.017 130.819C188.271 129.887 188.234 128.943 188.234 128.672H196.234C196.234 128.088 196.135 126.91 195.264 125.822C194.257 124.562 192.867 124.203 191.859 124.203V132.203ZM188.234 128.672V139.406H196.234V128.672H188.234ZM188.234 139.406C188.234 138.915 188.36 137.811 189.312 136.859C190.264 135.907 191.368 135.781 191.859 135.781V143.781C192.601 143.781 193.892 143.593 194.969 142.516C196.046 141.439 196.234 140.148 196.234 139.406H188.234ZM191.859 135.781H172.172V143.781H191.859V135.781ZM168.172 139.781V154.781H176.172V139.781H168.172ZM172.172 158.781H191.859V150.781H172.172V158.781ZM191.859 158.781C191.368 158.781 190.264 158.656 189.312 157.703C188.36 156.751 188.234 155.648 188.234 155.156H196.234C196.234 154.415 196.046 153.124 194.969 152.047C193.892 150.969 192.601 150.781 191.859 150.781V158.781ZM188.235 155.191L188.328 166.066L196.328 165.997L196.234 155.122L188.235 155.191ZM188.328 166.031C188.328 165.54 188.454 164.436 189.406 163.484C190.358 162.532 191.462 162.406 191.953 162.406V170.406C192.695 170.406 193.986 170.218 195.063 169.141C196.14 168.064 196.328 166.773 196.328 166.031H188.328ZM191.953 162.406H172.172V170.406H191.953V162.406ZM168.172 166.406V183.188H176.172V166.406H168.172ZM172.172 187.188H191.953V179.188H172.172V187.188ZM191.953 187.188C191.195 187.188 189.993 186.906 189.111 185.803C188.365 184.871 188.328 183.927 188.328 183.656H196.328C196.328 183.073 196.229 181.895 195.358 180.806C194.35 179.547 192.961 179.188 191.953 179.188V187.188ZM188.328 183.656V194.625H196.328V183.656H188.328ZM188.328 194.625C188.328 194.133 188.454 193.03 189.406 192.078C190.358 191.126 191.462 191 191.953 191V199C192.695 199 193.986 198.812 195.063 197.735C196.14 196.657 196.328 195.367 196.328 194.625H188.328Z" fill="#FF7D2B" mask="url(#path-4-outside-2_143_1157)"/>
</svg>
