<svg width="213" height="213" viewBox="0 0 213 213" fill="none" xmlns="http://www.w3.org/2000/svg">
<path d="M205.649 135.756C195.149 177.256 77.8758 212 41.1488 212C4.4219 212 -4.8278 163.5 2.14889 135.756C12.6489 94 106.422 12 143.149 12C221.649 12 217.982 87.0112 205.649 135.756Z" fill="#FF7D2B"/>
<mask id="path-2-outside-1_150_1158" maskUnits="userSpaceOnUse" x="15" y="49" width="147" height="69" fill="black">
<rect fill="white" x="15" y="49" width="147" height="69"/>
<path d="M28.0469 117H17.1719C16.9219 117 16.7969 116.844 16.7969 116.531L16.9844 50.5781C16.9844 50.3281 17.1094 50.2031 17.3594 50.2031H36.7656C40.2344 50.2031 43.4219 51.0469 46.3281 52.7344C49.2344 54.4219 51.5469 56.6875 53.2656 59.5312C55.0156 62.375 55.8906 65.5938 55.8906 69.1875C55.8906 71.5312 55.5312 73.6562 54.8125 75.5625C54.0938 77.4688 53.25 79.0781 52.2812 80.3906C51.3438 81.7031 50.4844 82.6719 49.7031 83.2969C53.1719 87.1406 54.9062 91.6562 54.9062 96.8438L55 116.531C55 116.844 54.8438 117 54.5312 117H43.6562C43.4062 117 43.2812 116.906 43.2812 116.719V96.8438C43.2812 94.5312 42.4688 92.5312 40.8438 90.8438C39.2188 89.1562 37.2188 88.3125 34.8438 88.3125H28.5156L28.4219 116.531C28.4219 116.844 28.2969 117 28.0469 117ZM36.7656 61.6875H28.5156V76.7812H36.7656C38.7344 76.7812 40.4844 76.0469 42.0156 74.5781C43.5781 73.1094 44.3594 71.3125 44.3594 69.1875C44.3594 67.1562 43.6094 65.4062 42.1094 63.9375C40.6094 62.4375 38.8281 61.6875 36.7656 61.6875ZM74.4531 117H63.5781C63.2656 117 63.1094 116.844 63.1094 116.531L63.2031 50.5781C63.2031 50.3281 63.3281 50.2031 63.5781 50.2031H74.3594C74.6094 50.2031 74.7344 50.3281 74.7344 50.5781L74.8281 116.531C74.8281 116.844 74.7031 117 74.4531 117ZM100.938 116.906L83.7344 117C83.4219 117 83.2656 116.844 83.2656 116.531L83.4531 50.5781C83.4531 50.3281 83.5781 50.2031 83.8281 50.2031L101.781 50.1094C105.344 50.0156 108.562 50.8281 111.438 52.5469C114.344 54.2656 116.656 56.5938 118.375 59.5312C120.125 62.4375 121 65.6562 121 69.1875V96.75C121 100.438 120.109 103.812 118.328 106.875C116.516 109.906 114.109 112.328 111.109 114.141C108.109 115.922 104.719 116.844 100.938 116.906ZM101.781 61.5938L95.0781 61.6875L94.9844 105.188H100.938C103.312 105.188 105.312 104.359 106.938 102.703C108.562 101.047 109.375 99.0625 109.375 96.75V69.0938C109.375 67.0625 108.625 65.2969 107.125 63.7969C105.625 62.2656 103.844 61.5312 101.781 61.5938ZM159.953 117H128.922C128.672 117 128.547 116.844 128.547 116.531L128.641 50.5781C128.641 50.3281 128.766 50.2031 129.016 50.2031H159.859C160.109 50.2031 160.234 50.3594 160.234 50.6719V61.4062C160.234 61.6562 160.109 61.7812 159.859 61.7812H140.172V76.7812H159.859C160.109 76.7812 160.234 76.9062 160.234 77.1562L160.328 88.0312C160.328 88.2812 160.203 88.4062 159.953 88.4062H140.172V105.188H159.953C160.203 105.188 160.328 105.344 160.328 105.656V116.625C160.328 116.875 160.203 117 159.953 117Z"/>
</mask>
<path d="M28.0469 117H17.1719C16.9219 117 16.7969 116.844 16.7969 116.531L16.9844 50.5781C16.9844 50.3281 17.1094 50.2031 17.3594 50.2031H36.7656C40.2344 50.2031 43.4219 51.0469 46.3281 52.7344C49.2344 54.4219 51.5469 56.6875 53.2656 59.5312C55.0156 62.375 55.8906 65.5938 55.8906 69.1875C55.8906 71.5312 55.5312 73.6562 54.8125 75.5625C54.0938 77.4688 53.25 79.0781 52.2812 80.3906C51.3438 81.7031 50.4844 82.6719 49.7031 83.2969C53.1719 87.1406 54.9062 91.6562 54.9062 96.8438L55 116.531C55 116.844 54.8438 117 54.5312 117H43.6562C43.4062 117 43.2812 116.906 43.2812 116.719V96.8438C43.2812 94.5312 42.4688 92.5312 40.8438 90.8438C39.2188 89.1562 37.2188 88.3125 34.8438 88.3125H28.5156L28.4219 116.531C28.4219 116.844 28.2969 117 28.0469 117ZM36.7656 61.6875H28.5156V76.7812H36.7656C38.7344 76.7812 40.4844 76.0469 42.0156 74.5781C43.5781 73.1094 44.3594 71.3125 44.3594 69.1875C44.3594 67.1562 43.6094 65.4062 42.1094 63.9375C40.6094 62.4375 38.8281 61.6875 36.7656 61.6875ZM74.4531 117H63.5781C63.2656 117 63.1094 116.844 63.1094 116.531L63.2031 50.5781C63.2031 50.3281 63.3281 50.2031 63.5781 50.2031H74.3594C74.6094 50.2031 74.7344 50.3281 74.7344 50.5781L74.8281 116.531C74.8281 116.844 74.7031 117 74.4531 117ZM100.938 116.906L83.7344 117C83.4219 117 83.2656 116.844 83.2656 116.531L83.4531 50.5781C83.4531 50.3281 83.5781 50.2031 83.8281 50.2031L101.781 50.1094C105.344 50.0156 108.562 50.8281 111.438 52.5469C114.344 54.2656 116.656 56.5938 118.375 59.5312C120.125 62.4375 121 65.6562 121 69.1875V96.75C121 100.438 120.109 103.812 118.328 106.875C116.516 109.906 114.109 112.328 111.109 114.141C108.109 115.922 104.719 116.844 100.938 116.906ZM101.781 61.5938L95.0781 61.6875L94.9844 105.188H100.938C103.312 105.188 105.312 104.359 106.938 102.703C108.562 101.047 109.375 99.0625 109.375 96.75V69.0938C109.375 67.0625 108.625 65.2969 107.125 63.7969C105.625 62.2656 103.844 61.5312 101.781 61.5938ZM159.953 117H128.922C128.672 117 128.547 116.844 128.547 116.531L128.641 50.5781C128.641 50.3281 128.766 50.2031 129.016 50.2031H159.859C160.109 50.2031 160.234 50.3594 160.234 50.6719V61.4062C160.234 61.6562 160.109 61.7812 159.859 61.7812H140.172V76.7812H159.859C160.109 76.7812 160.234 76.9062 160.234 77.1562L160.328 88.0312C160.328 88.2812 160.203 88.4062 159.953 88.4062H140.172V105.188H159.953C160.203 105.188 160.328 105.344 160.328 105.656V116.625C160.328 116.875 160.203 117 159.953 117Z" fill="#070216"/>
<path d="M16.7969 116.531L15.7969 116.528V116.531H16.7969ZM16.9844 50.5781L17.9844 50.581V50.5781H16.9844ZM53.2656 59.5312L52.4098 60.0485L52.414 60.0553L53.2656 59.5312ZM52.2812 80.3906L51.4767 79.7968L51.472 79.803L51.4675 79.8094L52.2812 80.3906ZM49.7031 83.2969L49.0784 82.516L48.2497 83.179L48.9607 83.9668L49.7031 83.2969ZM54.9062 96.8438H53.9062L53.9063 96.8485L54.9062 96.8438ZM55 116.531L56 116.531L56 116.526L55 116.531ZM28.5156 88.3125V87.3125H27.5189L27.5156 88.3092L28.5156 88.3125ZM28.4219 116.531L27.4219 116.528V116.531H28.4219ZM28.5156 61.6875V60.6875H27.5156V61.6875H28.5156ZM28.5156 76.7812H27.5156V77.7812H28.5156V76.7812ZM42.0156 74.5781L41.3307 73.8495L41.3234 73.8564L42.0156 74.5781ZM42.1094 63.9375L41.4022 64.6446L41.4098 64.652L42.1094 63.9375ZM28.0469 116H17.1719V118H28.0469V116ZM17.1719 116C17.2118 116 17.2928 116.006 17.3924 116.048C17.4981 116.092 17.5962 116.164 17.6715 116.258C17.8111 116.433 17.7969 116.581 17.7969 116.531H15.7969C15.7969 116.794 15.8451 117.177 16.1098 117.508C16.4085 117.881 16.8262 118 17.1719 118V116ZM17.7969 116.534L17.9844 50.581L15.9844 50.5753L15.7969 116.528L17.7969 116.534ZM17.9844 50.5781C17.9844 50.6073 17.9764 50.8128 17.7852 51.004C17.5941 51.1952 17.3885 51.2031 17.3594 51.2031V49.2031C17.0802 49.2031 16.6872 49.2736 16.371 49.5898C16.0548 49.9059 15.9844 50.299 15.9844 50.5781H17.9844ZM17.3594 51.2031H36.7656V49.2031H17.3594V51.2031ZM36.7656 51.2031C40.0639 51.2031 43.0773 52.0032 45.826 53.5992L46.8303 51.8696C43.7664 50.0906 40.4048 49.2031 36.7656 49.2031V51.2031ZM45.826 53.5992C48.5888 55.2034 50.7789 57.3502 52.4098 60.0485L54.1215 59.014C52.3148 56.0248 49.88 53.6404 46.8303 51.8696L45.826 53.5992ZM52.414 60.0553C54.0596 62.7294 54.8906 65.7641 54.8906 69.1875H56.8906C56.8906 65.4234 55.9717 62.0206 54.1173 59.0072L52.414 60.0553ZM54.8906 69.1875C54.8906 71.4286 54.5472 73.4318 53.8768 75.2097L55.7482 75.9153C56.5153 73.8807 56.8906 71.6339 56.8906 69.1875H54.8906ZM53.8768 75.2097C53.1828 77.0503 52.3793 78.5739 51.4767 79.7968L53.0858 80.9845C54.1207 79.5824 55.0047 77.8872 55.7482 75.9153L53.8768 75.2097ZM51.4675 79.8094C50.5551 81.0867 49.7576 81.9727 49.0784 82.516L50.3278 84.0777C51.2111 83.3711 52.1324 82.3195 53.095 80.9719L51.4675 79.8094ZM48.9607 83.9668C52.2633 87.6265 53.9062 91.9032 53.9062 96.8438H55.9062C55.9062 91.4093 54.0804 86.6548 50.4455 82.6269L48.9607 83.9668ZM53.9063 96.8485L54 116.536L56 116.526L55.9062 96.839L53.9063 96.8485ZM54 116.531C54 116.529 53.9999 116.486 54.022 116.42C54.0457 116.349 54.0926 116.259 54.1757 116.176C54.2588 116.093 54.349 116.046 54.4201 116.022C54.4864 116 54.529 116 54.5312 116V118C54.8416 118 55.2581 117.922 55.5899 117.59C55.9217 117.258 56 116.842 56 116.531H54ZM54.5312 116H43.6562V118H54.5312V116ZM43.6562 116C43.6274 116 43.7881 115.99 43.975 116.13C44.078 116.207 44.1637 116.312 44.2185 116.436C44.2707 116.553 44.2812 116.656 44.2812 116.719H42.2812C42.2812 117.056 42.409 117.455 42.775 117.73C43.0869 117.964 43.4351 118 43.6562 118V116ZM44.2812 116.719V96.8438H42.2812V116.719H44.2812ZM44.2812 96.8438C44.2812 94.2688 43.3659 92.0212 41.5641 90.1501L40.1234 91.5374C41.5716 93.0413 42.2812 94.7937 42.2812 96.8438H44.2812ZM41.5641 90.1501C39.7477 88.2638 37.4863 87.3125 34.8438 87.3125V89.3125C36.9512 89.3125 38.6898 90.0487 40.1234 91.5374L41.5641 90.1501ZM34.8438 87.3125H28.5156V89.3125H34.8438V87.3125ZM27.5156 88.3092L27.4219 116.528L29.4219 116.535L29.5156 88.3158L27.5156 88.3092ZM27.4219 116.531C27.4219 116.581 27.4076 116.433 27.5473 116.258C27.6226 116.164 27.7206 116.092 27.8263 116.048C27.9259 116.006 28.0069 116 28.0469 116V118C28.3926 118 28.8103 117.881 29.109 117.508C29.3736 117.177 29.4219 116.794 29.4219 116.531H27.4219ZM36.7656 60.6875H28.5156V62.6875H36.7656V60.6875ZM27.5156 61.6875V76.7812H29.5156V61.6875H27.5156ZM28.5156 77.7812H36.7656V75.7812H28.5156V77.7812ZM36.7656 77.7812C39.0136 77.7812 41.0063 76.9319 42.7079 75.2998L41.3234 73.8564C39.9625 75.1618 38.4552 75.7812 36.7656 75.7812V77.7812ZM42.7005 75.3068C44.462 73.651 45.3594 71.5913 45.3594 69.1875H43.3594C43.3594 71.0337 42.6942 72.5678 41.3307 73.8495L42.7005 75.3068ZM45.3594 69.1875C45.3594 66.8774 44.4939 64.8728 42.809 63.223L41.4098 64.652C42.7249 65.9397 43.3594 67.4351 43.3594 69.1875H45.3594ZM42.8165 63.2304C41.1349 61.5488 39.1017 60.6875 36.7656 60.6875V62.6875C38.5546 62.6875 40.0838 63.3262 41.4023 64.6446L42.8165 63.2304ZM63.1094 116.531L62.1094 116.53V116.531H63.1094ZM63.2031 50.5781L64.2031 50.5795V50.5781H63.2031ZM74.7344 50.5781L73.7344 50.5781L73.7344 50.5795L74.7344 50.5781ZM74.8281 116.531L75.8281 116.531L75.8281 116.53L74.8281 116.531ZM74.4531 116H63.5781V118H74.4531V116ZM63.5781 116C63.5803 116 63.623 116 63.6893 116.022C63.7604 116.046 63.8506 116.093 63.9337 116.176C64.0168 116.259 64.0637 116.349 64.0874 116.42C64.1094 116.486 64.1094 116.529 64.1094 116.531H62.1094C62.1094 116.842 62.1877 117.258 62.5195 117.59C62.8513 117.922 63.2677 118 63.5781 118V116ZM64.1094 116.533L64.2031 50.5795L62.2031 50.5767L62.1094 116.53L64.1094 116.533ZM64.2031 50.5781C64.2031 50.6073 64.1952 50.8128 64.004 51.004C63.8128 51.1952 63.6073 51.2031 63.5781 51.2031V49.2031C63.299 49.2031 62.9059 49.2736 62.5898 49.5898C62.2736 49.9059 62.2031 50.299 62.2031 50.5781H64.2031ZM63.5781 51.2031H74.3594V49.2031H63.5781V51.2031ZM74.3594 51.2031C74.3302 51.2031 74.1247 51.1952 73.9335 51.004C73.7423 50.8128 73.7344 50.6073 73.7344 50.5781H75.7344C75.7344 50.299 75.6639 49.9059 75.3477 49.5898C75.0316 49.2736 74.6385 49.2031 74.3594 49.2031V51.2031ZM73.7344 50.5795L73.8281 116.533L75.8281 116.53L75.7344 50.5767L73.7344 50.5795ZM73.8281 116.531C73.8281 116.581 73.8139 116.433 73.9535 116.258C74.0288 116.164 74.1269 116.092 74.2326 116.048C74.3322 116.006 74.4132 116 74.4531 116V118C74.7988 118 75.2165 117.881 75.5152 117.508C75.7799 117.177 75.8281 116.794 75.8281 116.531H73.8281ZM100.938 116.906L100.943 117.906L100.954 117.906L100.938 116.906ZM83.7344 117L83.7344 118L83.7398 118L83.7344 117ZM83.2656 116.531L82.2656 116.528V116.531H83.2656ZM83.4531 50.5781L84.4531 50.581V50.5781H83.4531ZM83.8281 50.2031L83.8281 51.2031L83.8333 51.2031L83.8281 50.2031ZM101.781 50.1094L101.786 51.1094L101.797 51.1093L101.808 51.109L101.781 50.1094ZM111.438 52.5469L110.924 53.4052L110.928 53.4076L111.438 52.5469ZM118.375 59.5312L117.512 60.0363L117.518 60.0471L118.375 59.5312ZM118.328 106.875L119.186 107.388L119.193 107.378L118.328 106.875ZM111.109 114.141L111.62 115.001L111.626 114.997L111.109 114.141ZM101.781 61.5938L101.795 62.5937L101.803 62.5935L101.812 62.5933L101.781 61.5938ZM95.0781 61.6875L95.0641 60.6876L94.0802 60.7014L94.0781 61.6853L95.0781 61.6875ZM94.9844 105.188L93.9844 105.185L93.9822 106.188H94.9844V105.188ZM107.125 63.7969L106.411 64.4967L106.418 64.504L107.125 63.7969ZM100.932 115.906L83.7289 116L83.7398 118L100.943 117.906L100.932 115.906ZM83.7344 116C83.7366 116 83.7793 116 83.8455 116.022C83.9166 116.046 84.0068 116.093 84.0899 116.176C84.173 116.259 84.2199 116.349 84.2436 116.42C84.2657 116.486 84.2656 116.529 84.2656 116.531H82.2656C82.2656 116.842 82.3439 117.258 82.6757 117.59C83.0075 117.922 83.424 118 83.7344 118V116ZM84.2656 116.534L84.4531 50.581L82.4531 50.5753L82.2656 116.528L84.2656 116.534ZM84.4531 50.5781C84.4531 50.6073 84.4452 50.8128 84.254 51.004C84.0628 51.1952 83.8573 51.2031 83.8281 51.2031V49.2031C83.549 49.2031 83.1559 49.2736 82.8398 49.5898C82.5236 49.9059 82.4531 50.299 82.4531 50.5781H84.4531ZM83.8333 51.2031L101.786 51.1094L101.776 49.1094L83.8229 49.2031L83.8333 51.2031ZM101.808 51.109C105.193 51.0199 108.223 51.7901 110.924 53.4052L111.951 51.6886C108.902 49.8662 105.494 49.0113 101.755 49.1097L101.808 51.109ZM110.928 53.4076C113.687 55.0391 115.878 57.2443 117.512 60.0363L119.238 59.0262C117.434 55.9432 115 53.4922 111.947 51.6861L110.928 53.4076ZM117.518 60.0471C119.171 62.7911 120 65.8302 120 69.1875H122C122 65.4823 121.079 62.0839 119.232 59.0154L117.518 60.0471ZM120 69.1875V96.75H122V69.1875H120ZM120 96.75C120 100.268 119.152 103.469 117.464 106.372L119.193 107.378C121.066 104.156 122 100.607 122 96.75H120ZM117.47 106.362C115.741 109.254 113.451 111.557 110.592 113.285L111.626 114.997C114.768 113.099 117.291 110.559 119.186 107.388L117.47 106.362ZM110.599 113.281C107.761 114.966 104.543 115.847 100.921 115.906L100.954 117.906C104.894 117.841 108.458 116.878 111.62 115L110.599 113.281ZM101.767 60.5938L95.0641 60.6876L95.0921 62.6874L101.795 62.5937L101.767 60.5938ZM94.0781 61.6853L93.9844 105.185L95.9844 105.19L96.0781 61.6897L94.0781 61.6853ZM94.9844 106.188H100.938V104.188H94.9844V106.188ZM100.938 106.188C103.574 106.188 105.833 105.256 107.651 103.403L106.224 102.003C104.792 103.462 103.051 104.188 100.938 104.188V106.188ZM107.651 103.403C109.459 101.561 110.375 99.3254 110.375 96.75H108.375C108.375 98.7996 107.666 100.533 106.224 102.003L107.651 103.403ZM110.375 96.75V69.0938H108.375V96.75H110.375ZM110.375 69.0938C110.375 66.7845 109.51 64.768 107.832 63.0898L106.418 64.504C107.74 65.8257 108.375 67.3405 108.375 69.0938H110.375ZM107.839 63.0971C106.152 61.3751 104.105 60.5229 101.751 60.5942L101.812 62.5933C103.583 62.5396 105.098 63.1562 106.411 64.4967L107.839 63.0971ZM128.547 116.531L127.547 116.53V116.531H128.547ZM128.641 50.5781L129.641 50.5795V50.5781H128.641ZM140.172 61.7812V60.7812H139.172V61.7812H140.172ZM140.172 76.7812H139.172V77.7812H140.172V76.7812ZM160.234 77.1562H159.234L159.234 77.1649L160.234 77.1562ZM160.328 88.0312H161.328L161.328 88.0226L160.328 88.0312ZM140.172 88.4062V87.4062H139.172V88.4062H140.172ZM140.172 105.188H139.172V106.188H140.172V105.188ZM159.953 116H128.922V118H159.953V116ZM128.922 116C128.962 116 129.043 116.006 129.142 116.048C129.248 116.092 129.346 116.164 129.421 116.258C129.561 116.433 129.547 116.581 129.547 116.531H127.547C127.547 116.794 127.595 117.177 127.86 117.508C128.158 117.881 128.576 118 128.922 118V116ZM129.547 116.533L129.641 50.5795L127.641 50.5767L127.547 116.53L129.547 116.533ZM129.641 50.5781C129.641 50.6073 129.633 50.8128 129.441 51.004C129.25 51.1952 129.045 51.2031 129.016 51.2031V49.2031C128.736 49.2031 128.343 49.2736 128.027 49.5898C127.711 49.9059 127.641 50.299 127.641 50.5781H129.641ZM129.016 51.2031H159.859V49.2031H129.016V51.2031ZM159.859 51.2031C159.819 51.2031 159.738 51.197 159.639 51.1555C159.533 51.1114 159.435 51.0392 159.36 50.945C159.22 50.7705 159.234 50.6225 159.234 50.6719H161.234C161.234 50.4088 161.186 50.0264 160.921 49.6956C160.623 49.3222 160.205 49.2031 159.859 49.2031V51.2031ZM159.234 50.6719V61.4062H161.234V50.6719H159.234ZM159.234 61.4062C159.234 61.3771 159.242 61.1716 159.434 60.9804C159.625 60.7892 159.83 60.7812 159.859 60.7812V62.7812C160.139 62.7812 160.532 62.7108 160.848 62.3946C161.164 62.0784 161.234 61.6854 161.234 61.4062H159.234ZM159.859 60.7812H140.172V62.7812H159.859V60.7812ZM139.172 61.7812V76.7812H141.172V61.7812H139.172ZM140.172 77.7812H159.859V75.7812H140.172V77.7812ZM159.859 77.7812C159.83 77.7812 159.625 77.7733 159.434 77.5821C159.242 77.3909 159.234 77.1854 159.234 77.1562H161.234C161.234 76.8771 161.164 76.4841 160.848 76.1679C160.532 75.8517 160.139 75.7812 159.859 75.7812V77.7812ZM159.234 77.1649L159.328 88.0399L161.328 88.0226L161.234 77.1476L159.234 77.1649ZM159.328 88.0312C159.328 88.0021 159.336 87.7966 159.527 87.6054C159.718 87.4142 159.924 87.4062 159.953 87.4062V89.4062C160.232 89.4062 160.625 89.3358 160.941 89.0196C161.258 88.7034 161.328 88.3104 161.328 88.0312H159.328ZM159.953 87.4062H140.172V89.4062H159.953V87.4062ZM139.172 88.4062V105.188H141.172V88.4062H139.172ZM140.172 106.188H159.953V104.188H140.172V106.188ZM159.953 106.188C159.913 106.188 159.832 106.181 159.733 106.14C159.627 106.096 159.529 106.024 159.454 105.929C159.314 105.755 159.328 105.607 159.328 105.656H161.328C161.328 105.393 161.28 105.011 161.015 104.68C160.717 104.307 160.299 104.188 159.953 104.188V106.188ZM159.328 105.656V116.625H161.328V105.656H159.328ZM159.328 116.625C159.328 116.596 159.336 116.39 159.527 116.199C159.718 116.008 159.924 116 159.953 116V118C160.232 118 160.625 117.93 160.941 117.613C161.258 117.297 161.328 116.904 161.328 116.625H159.328Z" fill="#070216" mask="url(#path-2-outside-1_150_1158)"/>
<mask id="path-4-outside-2_150_1158" maskUnits="userSpaceOnUse" x="47" y="127" width="147" height="69" fill="black">
<rect fill="white" x="47" y="127" width="147" height="69"/>
<path d="M60.0469 195H49.1719C48.9219 195 48.7969 194.844 48.7969 194.531L48.9844 128.578C48.9844 128.328 49.1094 128.203 49.3594 128.203H68.7656C72.2344 128.203 75.4219 129.047 78.3281 130.734C81.2344 132.422 83.5469 134.688 85.2656 137.531C87.0156 140.375 87.8906 143.594 87.8906 147.188C87.8906 149.531 87.5312 151.656 86.8125 153.562C86.0938 155.469 85.25 157.078 84.2812 158.391C83.3438 159.703 82.4844 160.672 81.7031 161.297C85.1719 165.141 86.9062 169.656 86.9062 174.844L87 194.531C87 194.844 86.8438 195 86.5312 195H75.6562C75.4062 195 75.2812 194.906 75.2812 194.719V174.844C75.2812 172.531 74.4688 170.531 72.8438 168.844C71.2188 167.156 69.2188 166.312 66.8438 166.312H60.5156L60.4219 194.531C60.4219 194.844 60.2969 195 60.0469 195ZM68.7656 139.688H60.5156V154.781H68.7656C70.7344 154.781 72.4844 154.047 74.0156 152.578C75.5781 151.109 76.3594 149.312 76.3594 147.188C76.3594 145.156 75.6094 143.406 74.1094 141.938C72.6094 140.438 70.8281 139.688 68.7656 139.688ZM106.453 195H95.5781C95.2656 195 95.1094 194.844 95.1094 194.531L95.2031 128.578C95.2031 128.328 95.3281 128.203 95.5781 128.203H106.359C106.609 128.203 106.734 128.328 106.734 128.578L106.828 194.531C106.828 194.844 106.703 195 106.453 195ZM132.938 194.906L115.734 195C115.422 195 115.266 194.844 115.266 194.531L115.453 128.578C115.453 128.328 115.578 128.203 115.828 128.203L133.781 128.109C137.344 128.016 140.562 128.828 143.438 130.547C146.344 132.266 148.656 134.594 150.375 137.531C152.125 140.438 153 143.656 153 147.188V174.75C153 178.438 152.109 181.812 150.328 184.875C148.516 187.906 146.109 190.328 143.109 192.141C140.109 193.922 136.719 194.844 132.938 194.906ZM133.781 139.594L127.078 139.688L126.984 183.188H132.938C135.312 183.188 137.312 182.359 138.938 180.703C140.562 179.047 141.375 177.062 141.375 174.75V147.094C141.375 145.062 140.625 143.297 139.125 141.797C137.625 140.266 135.844 139.531 133.781 139.594ZM191.953 195H160.922C160.672 195 160.547 194.844 160.547 194.531L160.641 128.578C160.641 128.328 160.766 128.203 161.016 128.203H191.859C192.109 128.203 192.234 128.359 192.234 128.672V139.406C192.234 139.656 192.109 139.781 191.859 139.781H172.172V154.781H191.859C192.109 154.781 192.234 154.906 192.234 155.156L192.328 166.031C192.328 166.281 192.203 166.406 191.953 166.406H172.172V183.188H191.953C192.203 183.188 192.328 183.344 192.328 183.656V194.625C192.328 194.875 192.203 195 191.953 195Z"/>
</mask>
<path d="M60.0469 195H49.1719C48.9219 195 48.7969 194.844 48.7969 194.531L48.9844 128.578C48.9844 128.328 49.1094 128.203 49.3594 128.203H68.7656C72.2344 128.203 75.4219 129.047 78.3281 130.734C81.2344 132.422 83.5469 134.688 85.2656 137.531C87.0156 140.375 87.8906 143.594 87.8906 147.188C87.8906 149.531 87.5312 151.656 86.8125 153.562C86.0938 155.469 85.25 157.078 84.2812 158.391C83.3438 159.703 82.4844 160.672 81.7031 161.297C85.1719 165.141 86.9062 169.656 86.9062 174.844L87 194.531C87 194.844 86.8438 195 86.5312 195H75.6562C75.4062 195 75.2812 194.906 75.2812 194.719V174.844C75.2812 172.531 74.4688 170.531 72.8438 168.844C71.2188 167.156 69.2188 166.312 66.8438 166.312H60.5156L60.4219 194.531C60.4219 194.844 60.2969 195 60.0469 195ZM68.7656 139.688H60.5156V154.781H68.7656C70.7344 154.781 72.4844 154.047 74.0156 152.578C75.5781 151.109 76.3594 149.312 76.3594 147.188C76.3594 145.156 75.6094 143.406 74.1094 141.938C72.6094 140.438 70.8281 139.688 68.7656 139.688ZM106.453 195H95.5781C95.2656 195 95.1094 194.844 95.1094 194.531L95.2031 128.578C95.2031 128.328 95.3281 128.203 95.5781 128.203H106.359C106.609 128.203 106.734 128.328 106.734 128.578L106.828 194.531C106.828 194.844 106.703 195 106.453 195ZM132.938 194.906L115.734 195C115.422 195 115.266 194.844 115.266 194.531L115.453 128.578C115.453 128.328 115.578 128.203 115.828 128.203L133.781 128.109C137.344 128.016 140.562 128.828 143.438 130.547C146.344 132.266 148.656 134.594 150.375 137.531C152.125 140.438 153 143.656 153 147.188V174.75C153 178.438 152.109 181.812 150.328 184.875C148.516 187.906 146.109 190.328 143.109 192.141C140.109 193.922 136.719 194.844 132.938 194.906ZM133.781 139.594L127.078 139.688L126.984 183.188H132.938C135.312 183.188 137.312 182.359 138.938 180.703C140.562 179.047 141.375 177.062 141.375 174.75V147.094C141.375 145.062 140.625 143.297 139.125 141.797C137.625 140.266 135.844 139.531 133.781 139.594ZM191.953 195H160.922C160.672 195 160.547 194.844 160.547 194.531L160.641 128.578C160.641 128.328 160.766 128.203 161.016 128.203H191.859C192.109 128.203 192.234 128.359 192.234 128.672V139.406C192.234 139.656 192.109 139.781 191.859 139.781H172.172V154.781H191.859C192.109 154.781 192.234 154.906 192.234 155.156L192.328 166.031C192.328 166.281 192.203 166.406 191.953 166.406H172.172V183.188H191.953C192.203 183.188 192.328 183.344 192.328 183.656V194.625C192.328 194.875 192.203 195 191.953 195Z" fill="#070216"/>
<path d="M48.7969 194.531L47.7969 194.528V194.531H48.7969ZM48.9844 128.578L49.9844 128.581V128.578H48.9844ZM85.2656 137.531L84.4098 138.049L84.414 138.055L85.2656 137.531ZM84.2812 158.391L83.4767 157.797L83.472 157.803L83.4675 157.809L84.2812 158.391ZM81.7031 161.297L81.0784 160.516L80.2497 161.179L80.9607 161.967L81.7031 161.297ZM86.9062 174.844H85.9062L85.9063 174.849L86.9062 174.844ZM87 194.531H88L88 194.526L87 194.531ZM60.5156 166.312V165.312H59.5189L59.5156 166.309L60.5156 166.312ZM60.4219 194.531L59.4219 194.528V194.531H60.4219ZM60.5156 139.688V138.688H59.5156V139.688H60.5156ZM60.5156 154.781H59.5156V155.781H60.5156V154.781ZM74.0156 152.578L73.3307 151.849L73.3234 151.856L74.0156 152.578ZM74.1094 141.938L73.4022 142.645L73.4098 142.652L74.1094 141.938ZM60.0469 194H49.1719V196H60.0469V194ZM49.1719 194C49.2118 194 49.2928 194.006 49.3924 194.048C49.4981 194.092 49.5962 194.164 49.6715 194.258C49.8111 194.433 49.7969 194.581 49.7969 194.531H47.7969C47.7969 194.794 47.8451 195.177 48.1098 195.508C48.4085 195.881 48.8262 196 49.1719 196V194ZM49.7969 194.534L49.9844 128.581L47.9844 128.575L47.7969 194.528L49.7969 194.534ZM49.9844 128.578C49.9844 128.607 49.9764 128.813 49.7852 129.004C49.5941 129.195 49.3885 129.203 49.3594 129.203V127.203C49.0802 127.203 48.6872 127.274 48.371 127.59C48.0548 127.906 47.9844 128.299 47.9844 128.578H49.9844ZM49.3594 129.203H68.7656V127.203H49.3594V129.203ZM68.7656 129.203C72.0639 129.203 75.0773 130.003 77.826 131.599L78.8303 129.87C75.7664 128.091 72.4048 127.203 68.7656 127.203V129.203ZM77.826 131.599C80.5888 133.203 82.7789 135.35 84.4098 138.049L86.1215 137.014C84.3148 134.025 81.88 131.64 78.8303 129.87L77.826 131.599ZM84.414 138.055C86.0596 140.729 86.8906 143.764 86.8906 147.188H88.8906C88.8906 143.423 87.9717 140.021 86.1173 137.007L84.414 138.055ZM86.8906 147.188C86.8906 149.429 86.5472 151.432 85.8768 153.21L87.7482 153.915C88.5153 151.881 88.8906 149.634 88.8906 147.188H86.8906ZM85.8768 153.21C85.1828 155.05 84.3793 156.574 83.4767 157.797L85.0858 158.984C86.1207 157.582 87.0047 155.887 87.7482 153.915L85.8768 153.21ZM83.4675 157.809C82.5551 159.087 81.7576 159.973 81.0784 160.516L82.3278 162.078C83.2111 161.371 84.1324 160.32 85.095 158.972L83.4675 157.809ZM80.9607 161.967C84.2633 165.626 85.9062 169.903 85.9062 174.844H87.9062C87.9062 169.409 86.0804 164.655 82.4455 160.627L80.9607 161.967ZM85.9063 174.849L86 194.536L88 194.526L87.9062 174.839L85.9063 174.849ZM86 194.531C86 194.529 85.9999 194.486 86.022 194.42C86.0457 194.349 86.0926 194.259 86.1757 194.176C86.2588 194.093 86.349 194.046 86.4201 194.022C86.4864 194 86.529 194 86.5312 194V196C86.8416 196 87.2581 195.922 87.5899 195.59C87.9217 195.258 88 194.842 88 194.531H86ZM86.5312 194H75.6562V196H86.5312V194ZM75.6562 194C75.6274 194 75.7881 193.99 75.975 194.13C76.078 194.207 76.1637 194.312 76.2185 194.436C76.2707 194.553 76.2812 194.656 76.2812 194.719H74.2812C74.2812 195.056 74.409 195.455 74.775 195.73C75.0869 195.964 75.4351 196 75.6562 196V194ZM76.2812 194.719V174.844H74.2812V194.719H76.2812ZM76.2812 174.844C76.2812 172.269 75.3659 170.021 73.5641 168.15L72.1234 169.537C73.5716 171.041 74.2812 172.794 74.2812 174.844H76.2812ZM73.5641 168.15C71.7477 166.264 69.4863 165.312 66.8438 165.312V167.312C68.9512 167.312 70.6898 168.049 72.1234 169.537L73.5641 168.15ZM66.8438 165.312H60.5156V167.312H66.8438V165.312ZM59.5156 166.309L59.4219 194.528L61.4219 194.535L61.5156 166.316L59.5156 166.309ZM59.4219 194.531C59.4219 194.581 59.4076 194.433 59.5473 194.258C59.6226 194.164 59.7206 194.092 59.8263 194.048C59.9259 194.006 60.0069 194 60.0469 194V196C60.3926 196 60.8103 195.881 61.109 195.508C61.3736 195.177 61.4219 194.794 61.4219 194.531H59.4219ZM68.7656 138.688H60.5156V140.688H68.7656V138.688ZM59.5156 139.688V154.781H61.5156V139.688H59.5156ZM60.5156 155.781H68.7656V153.781H60.5156V155.781ZM68.7656 155.781C71.0136 155.781 73.0063 154.932 74.7079 153.3L73.3234 151.856C71.9625 153.162 70.4552 153.781 68.7656 153.781V155.781ZM74.7005 153.307C76.462 151.651 77.3594 149.591 77.3594 147.188H75.3594C75.3594 149.034 74.6942 150.568 73.3307 151.849L74.7005 153.307ZM77.3594 147.188C77.3594 144.877 76.4939 142.873 74.809 141.223L73.4098 142.652C74.7249 143.94 75.3594 145.435 75.3594 147.188H77.3594ZM74.8165 141.23C73.1349 139.549 71.1017 138.688 68.7656 138.688V140.688C70.5546 140.688 72.0838 141.326 73.4023 142.645L74.8165 141.23ZM95.1094 194.531L94.1094 194.53V194.531H95.1094ZM95.2031 128.578L96.2031 128.58V128.578H95.2031ZM106.734 128.578L105.734 128.578L105.734 128.58L106.734 128.578ZM106.828 194.531L107.828 194.531L107.828 194.53L106.828 194.531ZM106.453 194H95.5781V196H106.453V194ZM95.5781 194C95.5803 194 95.623 194 95.6893 194.022C95.7604 194.046 95.8506 194.093 95.9337 194.176C96.0168 194.259 96.0637 194.349 96.0874 194.42C96.1094 194.486 96.1094 194.529 96.1094 194.531H94.1094C94.1094 194.842 94.1877 195.258 94.5195 195.59C94.8513 195.922 95.2677 196 95.5781 196V194ZM96.1094 194.533L96.2031 128.58L94.2031 128.577L94.1094 194.53L96.1094 194.533ZM96.2031 128.578C96.2031 128.607 96.1952 128.813 96.004 129.004C95.8128 129.195 95.6073 129.203 95.5781 129.203V127.203C95.299 127.203 94.9059 127.274 94.5898 127.59C94.2736 127.906 94.2031 128.299 94.2031 128.578H96.2031ZM95.5781 129.203H106.359V127.203H95.5781V129.203ZM106.359 129.203C106.33 129.203 106.125 129.195 105.934 129.004C105.742 128.813 105.734 128.607 105.734 128.578H107.734C107.734 128.299 107.664 127.906 107.348 127.59C107.032 127.274 106.639 127.203 106.359 127.203V129.203ZM105.734 128.58L105.828 194.533L107.828 194.53L107.734 128.577L105.734 128.58ZM105.828 194.531C105.828 194.581 105.814 194.433 105.954 194.258C106.029 194.164 106.127 194.092 106.233 194.048C106.332 194.006 106.413 194 106.453 194V196C106.799 196 107.217 195.881 107.515 195.508C107.78 195.177 107.828 194.794 107.828 194.531H105.828ZM132.938 194.906L132.943 195.906L132.954 195.906L132.938 194.906ZM115.734 195L115.734 196L115.74 196L115.734 195ZM115.266 194.531L114.266 194.528V194.531H115.266ZM115.453 128.578L116.453 128.581V128.578H115.453ZM115.828 128.203L115.828 129.203L115.833 129.203L115.828 128.203ZM133.781 128.109L133.786 129.109L133.797 129.109L133.808 129.109L133.781 128.109ZM143.438 130.547L142.924 131.405L142.928 131.408L143.438 130.547ZM150.375 137.531L149.512 138.036L149.518 138.047L150.375 137.531ZM150.328 184.875L151.186 185.388L151.193 185.378L150.328 184.875ZM143.109 192.141L143.62 193.001L143.626 192.997L143.109 192.141ZM133.781 139.594L133.795 140.594L133.803 140.594L133.812 140.593L133.781 139.594ZM127.078 139.688L127.064 138.688L126.08 138.701L126.078 139.685L127.078 139.688ZM126.984 183.188L125.984 183.185L125.982 184.188H126.984V183.188ZM139.125 141.797L138.411 142.497L138.418 142.504L139.125 141.797ZM132.932 193.906L115.729 194L115.74 196L132.943 195.906L132.932 193.906ZM115.734 194C115.737 194 115.779 194 115.846 194.022C115.917 194.046 116.007 194.093 116.09 194.176C116.173 194.259 116.22 194.349 116.244 194.42C116.266 194.486 116.266 194.529 116.266 194.531H114.266C114.266 194.842 114.344 195.258 114.676 195.59C115.008 195.922 115.424 196 115.734 196V194ZM116.266 194.534L116.453 128.581L114.453 128.575L114.266 194.528L116.266 194.534ZM116.453 128.578C116.453 128.607 116.445 128.813 116.254 129.004C116.063 129.195 115.857 129.203 115.828 129.203V127.203C115.549 127.203 115.156 127.274 114.84 127.59C114.524 127.906 114.453 128.299 114.453 128.578H116.453ZM115.833 129.203L133.786 129.109L133.776 127.109L115.823 127.203L115.833 129.203ZM133.808 129.109C137.193 129.02 140.223 129.79 142.924 131.405L143.951 129.689C140.902 127.866 137.494 127.011 133.755 127.11L133.808 129.109ZM142.928 131.408C145.687 133.039 147.878 135.244 149.512 138.036L151.238 137.026C149.434 133.943 147 131.492 143.947 129.686L142.928 131.408ZM149.518 138.047C151.171 140.791 152 143.83 152 147.188H154C154 143.482 153.079 140.084 151.232 137.015L149.518 138.047ZM152 147.188V174.75H154V147.188H152ZM152 174.75C152 178.268 151.152 181.469 149.464 184.372L151.193 185.378C153.066 182.156 154 178.607 154 174.75H152ZM149.47 184.362C147.741 187.254 145.451 189.557 142.592 191.285L143.626 192.997C146.768 191.099 149.291 188.559 151.186 185.388L149.47 184.362ZM142.599 191.281C139.761 192.966 136.543 193.847 132.921 193.906L132.954 195.906C136.894 195.841 140.458 194.878 143.62 193L142.599 191.281ZM133.767 138.594L127.064 138.688L127.092 140.687L133.795 140.594L133.767 138.594ZM126.078 139.685L125.984 183.185L127.984 183.19L128.078 139.69L126.078 139.685ZM126.984 184.188H132.938V182.188H126.984V184.188ZM132.938 184.188C135.574 184.188 137.833 183.256 139.651 181.403L138.224 180.003C136.792 181.462 135.051 182.188 132.938 182.188V184.188ZM139.651 181.403C141.459 179.561 142.375 177.325 142.375 174.75H140.375C140.375 176.8 139.666 178.533 138.224 180.003L139.651 181.403ZM142.375 174.75V147.094H140.375V174.75H142.375ZM142.375 147.094C142.375 144.784 141.51 142.768 139.832 141.09L138.418 142.504C139.74 143.826 140.375 145.341 140.375 147.094H142.375ZM139.839 141.097C138.152 139.375 136.105 138.523 133.751 138.594L133.812 140.593C135.583 140.54 137.098 141.156 138.411 142.497L139.839 141.097ZM160.547 194.531L159.547 194.53V194.531H160.547ZM160.641 128.578L161.641 128.58V128.578H160.641ZM172.172 139.781V138.781H171.172V139.781H172.172ZM172.172 154.781H171.172V155.781H172.172V154.781ZM192.234 155.156H191.234L191.234 155.165L192.234 155.156ZM192.328 166.031H193.328L193.328 166.023L192.328 166.031ZM172.172 166.406V165.406H171.172V166.406H172.172ZM172.172 183.188H171.172V184.188H172.172V183.188ZM191.953 194H160.922V196H191.953V194ZM160.922 194C160.962 194 161.043 194.006 161.142 194.048C161.248 194.092 161.346 194.164 161.421 194.258C161.561 194.433 161.547 194.581 161.547 194.531H159.547C159.547 194.794 159.595 195.177 159.86 195.508C160.158 195.881 160.576 196 160.922 196V194ZM161.547 194.533L161.641 128.58L159.641 128.577L159.547 194.53L161.547 194.533ZM161.641 128.578C161.641 128.607 161.633 128.813 161.441 129.004C161.25 129.195 161.045 129.203 161.016 129.203V127.203C160.736 127.203 160.343 127.274 160.027 127.59C159.711 127.906 159.641 128.299 159.641 128.578H161.641ZM161.016 129.203H191.859V127.203H161.016V129.203ZM191.859 129.203C191.819 129.203 191.738 129.197 191.639 129.155C191.533 129.111 191.435 129.039 191.36 128.945C191.22 128.77 191.234 128.622 191.234 128.672H193.234C193.234 128.409 193.186 128.026 192.921 127.696C192.623 127.322 192.205 127.203 191.859 127.203V129.203ZM191.234 128.672V139.406H193.234V128.672H191.234ZM191.234 139.406C191.234 139.377 191.242 139.172 191.434 138.98C191.625 138.789 191.83 138.781 191.859 138.781V140.781C192.139 140.781 192.532 140.711 192.848 140.395C193.164 140.078 193.234 139.685 193.234 139.406H191.234ZM191.859 138.781H172.172V140.781H191.859V138.781ZM171.172 139.781V154.781H173.172V139.781H171.172ZM172.172 155.781H191.859V153.781H172.172V155.781ZM191.859 155.781C191.83 155.781 191.625 155.773 191.434 155.582C191.242 155.391 191.234 155.185 191.234 155.156H193.234C193.234 154.877 193.164 154.484 192.848 154.168C192.532 153.852 192.139 153.781 191.859 153.781V155.781ZM191.234 155.165L191.328 166.04L193.328 166.023L193.234 155.148L191.234 155.165ZM191.328 166.031C191.328 166.002 191.336 165.797 191.527 165.605C191.718 165.414 191.924 165.406 191.953 165.406V167.406C192.232 167.406 192.625 167.336 192.941 167.02C193.258 166.703 193.328 166.31 193.328 166.031H191.328ZM191.953 165.406H172.172V167.406H191.953V165.406ZM171.172 166.406V183.188H173.172V166.406H171.172ZM172.172 184.188H191.953V182.188H172.172V184.188ZM191.953 184.188C191.913 184.188 191.832 184.181 191.733 184.14C191.627 184.096 191.529 184.024 191.454 183.929C191.314 183.755 191.328 183.607 191.328 183.656H193.328C193.328 183.393 193.28 183.011 193.015 182.68C192.717 182.307 192.299 182.188 191.953 182.188V184.188ZM191.328 183.656V194.625H193.328V183.656H191.328ZM191.328 194.625C191.328 194.596 191.336 194.39 191.527 194.199C191.718 194.008 191.924 194 191.953 194V196C192.232 196 192.625 195.93 192.941 195.613C193.258 195.297 193.328 194.904 193.328 194.625H191.328Z" fill="#070216" mask="url(#path-4-outside-2_150_1158)"/>
</svg>
